<svg id="Layer_1" data-name="Layer 1" xmlns="http://www.w3.org/2000/svg" viewBox="0 0 512 512"><title>dryclean-any-solvent-except-trichloroethylene</title><path d="M256,31.52c123.79,0,224.49,100.69,224.49,224.48S379.79,480.5,256,480.5,31.5,379.79,31.5,256,132.21,31.52,256,31.52M256,0C114.61,0,0,114.61,0,256S114.61,512,256,512,512,397.39,512,256,397.38,0,256,0Z" fill="#58595b"/><path d="M184.78,153.42C199,150.9,218.17,149,244,149c28.36,0,48.84,6,62.39,17.31,12.6,10.4,20.8,27.11,20.8,47,0,20.19-6.31,36.56-18,47.9-15.75,15.45-39.71,23-67.12,23-7.25,0-13.56-.34-18.91-1.6V363H184.78Zm38.44,98.65c5,1.57,11,1.88,18.91,1.88,29,0,46.64-14.49,46.64-39.08,0-23.63-16.39-35.91-43.17-35.91-10.72,0-18.28,1-22.38,1.88Z" fill="#58595b"/></svg>