<svg id="Layer_1" data-name="Layer 1" xmlns="http://www.w3.org/2000/svg" viewBox="0 0 512 512"><title>hand-wash</title><path d="M504.23,179.42a10.93,10.93,0,0,0-2.7-.42h0l-21.21-75.64L287.1,61.73l-51,17.81c-21,9.12-41.4,26.45-39.71,44.67C197.1,131.63,202,141,218.65,148l-13.41,4.88c-29.3,10.67-58.7,21.37-91.49,33.13l-1.55.83A34.19,34.19,0,0,0,120,246a33.17,33.17,0,0,0-4.05,7.33c-7.28-3.79-13.33-8.9-19.82-14.4-14.61-12.39-31.17-26.43-63.37-26.43a1.37,1.37,0,0,0-.31.08l-9.48-26.05a11.81,11.81,0,0,0-22.2,8.07L91,442.5c0,.12.12.18.16.29.15.37.4.69.59,1.06a12.13,12.13,0,0,0,1.67,2.47c.31.35.64.63,1,.95a13.35,13.35,0,0,0,2.4,1.61c.38.19.74.4,1.15.56a11.7,11.7,0,0,0,4.14.83H407.61c.38,0,.7-.19,1.07-.21s.84.21,1.25.21A11.82,11.82,0,0,0,421,442.5l90.25-248A11.79,11.79,0,0,0,504.23,179.42ZM401.67,426.64H110.33L41.14,236.54c18,2,28.17,10.61,39.66,20.36,14.62,12.39,31.18,26.45,63.38,26.45s48.76-14.06,63.37-26.45c13.17-11.18,24.55-20.82,48.08-20.82s34.93,9.64,48.12,20.82c14.62,12.39,31.19,26.45,63.4,26.45s48.78-14.06,63.4-26.45c11.64-9.86,21.9-18.5,40.33-20.4Zm77.89-214c-.31,0-.58-.19-.9-.19-32.21,0-48.77,14-63.39,26.43-13.19,11.19-24.58,20.83-48.13,20.83s-34.93-9.64-48.12-20.83l-.13-.13.06.05c6.75-2.42,13.55-4.88,20.59-7.4l-4-11.13c-9.37,3.38-18.42,6.62-27.31,9.83l.15.13c-12.5-9.48-28-17.79-52.76-17.79-32.19,0-48.76,14-63.37,26.43-13.18,11.19-24.55,20.83-48.08,20.83-11.92,0-20.72-2.49-28.22-6.39a52.22,52.22,0,0,0,10.9,4.18,22,22,0,0,1,6.8-9,4,4,0,0,0,.51-.19h.06l1.73-.32c33.52-12,63.49-23,93.43-33.88,30.51-11.1,61-22.2,95.13-34.45l-4-11.13c-1.08.37-2.07.74-3.13,1.14l-.1-.26c-22.64,8.12-43.66,15.73-64.16,23.19l-32.87,12C192,214.9,163.52,225.26,132.1,236.54c-10.89,0-17.88-7.58-20.45-14.77s-2.12-17.62,7-24.91c32.44-11.66,61.59-22.28,90.66-32.84l32.87-12c20.47-7.46,41.49-15,64.11-23.16l-4-11.13c-16.83,6-32.61,11.74-48.1,17.35l-18.68,6.06c-16.93-4.13-26.61-10.51-27.31-18.06-.92-10,13.42-24.4,32.25-32.61L287.87,74l183,39.41,19.77,70.51h0a11.51,11.51,0,0,0-1.57,2.58Z" fill="#58595b"/></svg>