<svg id="Layer_1" data-name="Layer 1" xmlns="http://www.w3.org/2000/svg" viewBox="0 0 512 512"><title>do-not-wash</title><path d="M504.23,143.85a11.78,11.78,0,0,0-15.14,7.06l-9.53,26.15c-.31,0-.58-.16-.9-.16-32.21,0-48.78,14-63.39,26.42-13.2,11.18-24.57,20.84-48.13,20.84-20.51,0-31.8-7.34-43.08-16.62L437.68,93.93a17.72,17.72,0,0,0-25.07-25.06L295.25,186.22c-10.25-5.44-22.76-9.32-39.62-9.32-17.92,0-30.89,4.41-41.48,10.38L95.72,68.86A17.72,17.72,0,0,0,70.65,93.93L185.58,208.84c-10.76,8.63-21.9,15.32-41.4,15.32-23.54,0-34.92-9.67-48.1-20.84C81.47,190.92,64.91,176.9,32.71,176.9c-.11,0-.2.05-.31.05l-9.48-26A11.81,11.81,0,1,0,.72,159L86.58,394.88,70.65,410.82a17.5,17.5,0,0,0,22.17,27,11.68,11.68,0,0,0,11.55,10.52H407.62a11.65,11.65,0,0,0,11.14-8.5,17.69,17.69,0,0,0,18.91-29l-13.24-13.24L511.29,159A11.81,11.81,0,0,0,504.23,143.85Zm-248.6,56.68a62.48,62.48,0,0,1,21.78,3.54l-23.24,23.24L231.8,204.94A60.35,60.35,0,0,1,255.62,200.53ZM41.14,201c18,2,28.17,10.61,39.66,20.35,14.62,12.39,31.18,26.45,63.38,26.45,28.49,0,44.73-11,58.22-22.12l26.71,26.71L105,376.47ZM401.45,424.71H106.88l10-10H391.45ZM140.5,391.09,254.17,277.43,367.83,391.09ZM406,379.16,279.23,252.37l28.05-28.07c13.83,11.57,30.19,23.48,59.86,23.48,32.21,0,48.78-14.05,63.41-26.45,11.62-9.85,21.89-18.5,40.33-20.41Z" fill="#58595b"/></svg>