<svg id="Layer_1" data-name="Layer 1" xmlns="http://www.w3.org/2000/svg" viewBox="0 0 512 512"><title>machine-wash-permanent-press-hot</title><path d="M504.23,104.12a11.79,11.79,0,0,0-15.14,7.06l-9.53,26.16c-.31,0-.58-.18-.9-.18-32.21,0-48.78,14-63.39,26.43-13.2,11.18-24.57,20.83-48.13,20.83s-34.93-9.65-48.12-20.83c-14.62-12.39-31.18-26.43-63.39-26.43s-48.75,14-63.37,26.43c-13.18,11.18-24.55,20.83-48.08,20.83s-34.92-9.65-48.1-20.83C81.47,151.2,64.91,137.16,32.7,137.16c-.11,0-.2.06-.31.06l-9.48-26a11.81,11.81,0,0,0-22.2,8.08L91,367.21c0,.1.12.19.16.29A24.31,24.31,0,0,0,93.38,371a11.51,11.51,0,0,0,1,.93,12.13,12.13,0,0,0,2.4,1.62,11.81,11.81,0,0,0,1.15.56,11.57,11.57,0,0,0,4.14.84H407.61c.37,0,.7-.19,1.07-.22s.84.22,1.26.22a11.84,11.84,0,0,0,11.1-7.78l90.25-248A11.81,11.81,0,0,0,504.23,104.12ZM401.67,351.35H110.33L41.14,161.25c18,2,28.17,10.61,39.66,20.37C95.42,194,112,208.05,144.18,208.05s48.76-14,63.37-26.43c13.17-11.18,24.55-20.83,48.08-20.83s34.93,9.65,48.12,20.83c14.62,12.39,31.19,26.43,63.4,26.43s48.78-14,63.41-26.43c11.62-9.87,21.89-18.51,40.33-20.42Z" fill="#58595b"/><path d="M204.76,266.6c-6.62-4.14-14.73-5.79-23.17-5.79a60.8,60.8,0,0,0-8.77.5L177,233.67H218V221.41H166.53l-7,51.64a115.47,115.47,0,0,1,15.06-1c21.34,0,30.78,9.76,30.78,23.66.17,14.4-11.75,23.34-25.32,23.34a48.34,48.34,0,0,1-23.17-6l-3.64,11.09c5.29,3.31,15.05,6.62,26.8,6.62,23.34,0,40.05-15.73,40.05-36.74C220.15,280.66,213.2,271.23,204.76,266.6Z" fill="#58595b"/><path d="M274.71,219.6c-21.84,0-37.56,19.69-37.56,55.94.33,35.58,14.73,55.28,35.74,55.28,23.67,0,37.41-20.19,37.41-56.77C310.29,239.79,297.22,219.6,274.71,219.6Zm-1,100c-13.24,0-21.85-15.88-21.85-43.85,0-29.29,9.26-44.85,21.85-44.85,15.22,0,21.84,17.38,21.84,43.86C295.56,302.18,288.44,319.55,273.72,319.55Z" fill="#58595b"/><path d="M339.7,209.5c-10.26,0-16.88,6.78-16.88,15.55,0,8.44,7,15.06,16.71,15.06,9.43,0,16.55-6.45,16.55-15.06C356.08,216.12,349.63,209.5,339.7,209.5ZM339.53,234c-5,0-8.27-4.46-8.27-8.94,0-5.13,3-9.43,8.11-9.43,5.29,0,8.61,4.14,8.61,9.27C348,229.86,344.66,234,339.53,234Z" fill="#58595b"/><path d="M407.62,385H104.38a11.81,11.81,0,1,0,0,23.62H407.62a11.81,11.81,0,1,0,0-23.62Z" fill="#58595b"/></svg>