<svg id="Layer_1" data-name="Layer 1" xmlns="http://www.w3.org/2000/svg" viewBox="0 0 512 512"><title>machine-wash-cold</title><path d="M504.23,120.94A11.78,11.78,0,0,0,489.09,128l-9.53,26.16c-.31,0-.58-.18-.9-.18-32.21,0-48.78,14-63.39,26.43-13.2,11.18-24.57,20.83-48.13,20.83S332.21,191.58,319,180.4C304.4,168,287.84,154,255.62,154s-48.75,14-63.36,26.43c-13.18,11.18-24.55,20.83-48.08,20.83s-34.92-9.66-48.1-20.83C81.47,168,64.91,154,32.71,154a2.65,2.65,0,0,0-.31.06l-9.48-26a11.81,11.81,0,0,0-22.2,8.08L91,384c0,.1.12.19.15.29.16.38.4.7.59,1.06a11.73,11.73,0,0,0,1.67,2.48,12.19,12.19,0,0,0,1,.93,12.69,12.69,0,0,0,2.4,1.62c.38.19.74.4,1.15.56a11.69,11.69,0,0,0,4.14.83H407.61c.37,0,.7-.19,1.07-.22s.84.22,1.26.22A11.83,11.83,0,0,0,421,384l90.25-247.95A11.8,11.8,0,0,0,504.23,120.94ZM401.67,368.17H110.33L41.14,178.07c18,2,28.17,10.61,39.66,20.35,14.62,12.39,31.18,26.45,63.38,26.45s48.75-14.05,63.36-26.45c13.17-11.17,24.55-20.81,48.08-20.81s34.93,9.64,48.12,20.81c14.62,12.39,31.18,26.45,63.4,26.45s48.78-14.05,63.41-26.45c11.62-9.85,21.89-18.5,40.33-20.41Z" fill="#58595b"/><path d="M196.48,287.87v-.33c13.08-4.8,19.87-14.23,19.87-25.49,0-13.07-9.6-25.65-30.78-25.65-11.59,0-22.51,4.14-28.31,8.27l4,10.59c4.63-3.31,12.91-7.12,21.51-7.12,13.41,0,18.87,7.62,18.87,16.22,0,12.74-13.4,18.2-24,18.2h-8.11V293.5h8.11c14.07,0,27.64,6.46,27.8,21.52.17,9.1-5.79,20.85-24.33,20.85a50.09,50.09,0,0,1-23.83-6.62l-4,11.09c5.29,3.48,15.88,7.29,28,7.29,25.66,0,39.23-15.06,39.23-32.27C220.31,300.29,209.72,290.36,196.48,287.87Z" fill="#58595b"/><path d="M274.71,236.41c-21.84,0-37.56,19.69-37.56,55.93.33,35.58,14.73,55.28,35.74,55.28,23.67,0,37.41-20.19,37.41-56.77C310.29,256.6,297.22,236.41,274.71,236.41Zm-1,100c-13.24,0-21.85-15.89-21.85-43.86,0-29.29,9.26-44.85,21.85-44.85,15.22,0,21.84,17.38,21.84,43.86C295.56,319,288.45,336.37,273.72,336.37Z" fill="#58595b"/><path d="M339.7,226.31c-10.26,0-16.88,6.78-16.88,15.56,0,8.44,6.95,15.06,16.71,15.06,9.43,0,16.55-6.45,16.55-15.06C356.08,232.93,349.63,226.31,339.7,226.31Zm-.17,24.49c-5,0-8.27-4.46-8.27-8.93,0-5.13,3-9.44,8.11-9.44,5.29,0,8.61,4.14,8.61,9.27C348,246.67,344.66,250.8,339.53,250.8Z" fill="#58595b"/></svg>