<svg id="Layer_1" data-name="Layer 1" xmlns="http://www.w3.org/2000/svg" viewBox="0 0 512 512"><title>machine-wash-normal-warm</title><path d="M504.22,120.94A11.78,11.78,0,0,0,489.08,128l-9.52,26.15c-.31,0-.58-.17-.9-.17-32.21,0-48.77,14-63.39,26.42-13.19,11.18-24.58,20.84-48.13,20.84S332.21,191.58,319,180.4C304.4,168,287.84,154,255.63,154s-48.75,14-63.37,26.42c-13.18,11.18-24.55,20.84-48.08,20.84s-34.92-9.66-48.1-20.84C81.47,168,64.91,154,32.71,154c-.11,0-.2.05-.31.06l-9.48-26a11.81,11.81,0,0,0-22.2,8.08L91,384c0,.1.12.18.15.29.16.38.4.7.59,1.06a11.9,11.9,0,0,0,1.67,2.48,12.19,12.19,0,0,0,1,.93,12.69,12.69,0,0,0,2.4,1.62c.38.19.74.4,1.15.56a11.69,11.69,0,0,0,4.14.83H407.6c.38,0,.71-.18,1.08-.22a12.62,12.62,0,0,0,1.25.22A11.82,11.82,0,0,0,421,384l90.25-247.95A11.8,11.8,0,0,0,504.22,120.94ZM401.67,368.16H110.33L41.14,178.07c18,2,28.17,10.62,39.66,20.35,14.62,12.39,31.18,26.45,63.38,26.45s48.75-14.05,63.37-26.45c13.17-11.17,24.55-20.81,48.08-20.81s34.93,9.64,48.12,20.81c14.62,12.39,31.19,26.45,63.4,26.45s48.78-14.05,63.4-26.45c11.64-9.85,21.9-18.5,40.33-20.41Z" fill="#58595b"/><path d="M212.54,238.23H196.82l-48,68.68v9.44h50V345.8h13.73V316.34H227.6V305.09H212.54Zm-13.73,31v35.91H163.56v-.33l26.31-36.57c3-5,5.62-9.6,8.93-15.88h.5Q198.8,260.73,198.8,269.18Z" fill="#58595b"/><path d="M274.71,236.41c-21.84,0-37.57,19.69-37.57,55.94.33,35.58,14.73,55.28,35.74,55.28,23.67,0,37.41-20.19,37.41-56.77C310.3,256.6,297.22,236.41,274.71,236.41Zm-1,100c-13.24,0-21.85-15.89-21.85-43.86,0-29.29,9.26-44.86,21.85-44.86,15.22,0,21.84,17.38,21.84,43.86C295.56,319,288.45,336.37,273.72,336.37Z" fill="#58595b"/><path d="M339.7,226.31c-10.26,0-16.88,6.78-16.88,15.55,0,8.44,6.95,15.06,16.71,15.06,9.43,0,16.55-6.45,16.55-15.06C356.08,232.93,349.63,226.31,339.7,226.31Zm-.17,24.49c-5,0-8.27-4.46-8.27-8.94,0-5.13,3-9.43,8.11-9.43,5.29,0,8.61,4.14,8.61,9.27C348,246.66,344.66,250.8,339.54,250.8Z" fill="#58595b"/></svg>