<svg id="Layer_1" data-name="Layer 1" xmlns="http://www.w3.org/2000/svg" viewBox="0 0 512 512"><title>machine-wash-normal-hot-60</title><path d="M504.22,120.94A11.78,11.78,0,0,0,489.08,128l-9.52,26.15c-.31,0-.58-.17-.9-.17-32.21,0-48.77,14-63.39,26.42-13.19,11.18-24.58,20.83-48.13,20.83S332.21,191.58,319,180.4C304.4,168,287.84,154,255.63,154s-48.75,14-63.37,26.42c-13.18,11.18-24.55,20.83-48.08,20.83s-34.92-9.66-48.1-20.83C81.47,168,64.91,154,32.71,154a2.6,2.6,0,0,0-.31.05l-9.48-26a11.81,11.81,0,1,0-22.2,8.08L91,384c0,.1.12.18.15.29.16.37.4.7.59,1.06a11.9,11.9,0,0,0,1.67,2.48,13.45,13.45,0,0,0,1,.93,12.66,12.66,0,0,0,2.4,1.61,12,12,0,0,0,1.15.56,11.69,11.69,0,0,0,4.14.83H407.6a10.18,10.18,0,0,0,1.08-.22,11,11,0,0,0,1.25.22A11.82,11.82,0,0,0,421,384l90.25-247.94A11.8,11.8,0,0,0,504.22,120.94ZM401.67,368.16H110.33L41.14,178.07c18,2,28.17,10.62,39.66,20.35,14.62,12.39,31.18,26.45,63.38,26.45s48.75-14.05,63.37-26.45c13.17-11.16,24.55-20.81,48.08-20.81s34.93,9.64,48.12,20.81c14.62,12.39,31.19,26.45,63.4,26.45s48.78-14.05,63.4-26.45c11.64-9.85,21.9-18.5,40.33-20.41Z" fill="#58595b"/><path d="M193.34,274.81c-11.91,0-21,5.63-26.15,12.57h-.33c2.48-17.87,14.39-34.43,37.4-38.06a52.88,52.88,0,0,1,10.92-.82V236.57a69.56,69.56,0,0,0-10.59.83c-13.57,1.66-25.49,7.11-34.43,15.9C159.41,263.88,152,280.6,152,301.78c0,28,15.06,45.85,37.9,45.85,22.5,0,35.91-18.2,35.91-38.07C225.78,288.71,212.37,274.81,193.34,274.81Zm-3.15,61.56c-15.39,0-23.66-13.25-23.83-30.95a13.63,13.63,0,0,1,1.49-6.29,23.9,23.9,0,0,1,21-13.24c13.4,0,22.17,9.26,22.17,24.66S202.61,336.37,190.19,336.37Z" fill="#58595b"/><path d="M274.71,236.4c-21.84,0-37.57,19.69-37.57,55.94.33,35.59,14.73,55.28,35.74,55.28,23.67,0,37.41-20.18,37.41-56.75C310.3,256.6,297.22,236.4,274.71,236.4Zm-1,100c-13.24,0-21.85-15.88-21.85-43.85,0-29.3,9.26-44.85,21.85-44.85,15.22,0,21.84,17.37,21.84,43.84C295.56,319,288.45,336.37,273.72,336.37Z" fill="#58595b"/><path d="M339.7,226.33c-10.26,0-16.88,6.78-16.88,15.55,0,8.43,6.95,15.05,16.71,15.05,9.43,0,16.55-6.45,16.55-15.05C356.08,232.94,349.63,226.33,339.7,226.33Zm-.17,24.48c-5,0-8.27-4.46-8.27-8.93,0-5.14,3-9.44,8.11-9.44,5.29,0,8.61,4.13,8.61,9.27C348,246.67,344.66,250.8,339.54,250.8Z" fill="#58595b"/></svg>