<svg id="Layer_1" data-name="Layer 1" xmlns="http://www.w3.org/2000/svg" viewBox="0 0 512 512"><title>machine-wash-gentle-cold</title><path d="M504.22,104.13a11.77,11.77,0,0,0-15.14,7.06l-9.53,26.16c-.31,0-.58-.18-.9-.18-32.21,0-48.78,14-63.39,26.43-13.2,11.18-24.57,20.83-48.13,20.83S332.2,174.77,319,163.59c-14.62-12.39-31.18-26.43-63.39-26.43s-48.75,14-63.37,26.43c-13.18,11.18-24.55,20.83-48.08,20.83s-34.92-9.66-48.1-20.83c-14.61-12.39-31.17-26.43-63.37-26.43a2.68,2.68,0,0,0-.31.06l-9.48-26a11.81,11.81,0,0,0-22.2,8.08L91,367.21c0,.1.12.19.15.29.16.38.4.7.59,1.06A11.68,11.68,0,0,0,93.38,371a12.39,12.39,0,0,0,1,.93,12.73,12.73,0,0,0,2.4,1.62c.38.19.74.4,1.15.56a11.7,11.7,0,0,0,4.14.83H407.61c.37,0,.7-.19,1.07-.22s.84.22,1.26.22a11.82,11.82,0,0,0,11.1-7.78l90.25-247.95A11.8,11.8,0,0,0,504.22,104.13ZM401.67,351.36H110.33L41.14,161.26c18,2,28.17,10.61,39.66,20.35C95.42,194,112,208.06,144.18,208.06s48.75-14.05,63.36-26.45c13.17-11.17,24.55-20.81,48.08-20.81s34.93,9.64,48.12,20.81c14.62,12.39,31.18,26.45,63.4,26.45s48.77-14.05,63.4-26.45c11.63-9.85,21.9-18.5,40.34-20.41Z" fill="#58595b"/><path d="M196.48,271.06v-.33c13.08-4.8,19.87-14.23,19.87-25.49,0-13.07-9.6-25.65-30.79-25.65-11.58,0-22.51,4.14-28.3,8.27l4,10.59c4.63-3.31,12.91-7.12,21.51-7.12,13.41,0,18.87,7.62,18.87,16.22,0,12.74-13.4,18.2-24,18.2h-8.11v10.93h8.11c14.07,0,27.64,6.46,27.8,21.52.17,9.1-5.79,20.85-24.33,20.85a50.09,50.09,0,0,1-23.83-6.62l-4,11.09c5.3,3.48,15.89,7.29,28,7.29,25.66,0,39.22-15.06,39.22-32.27C220.31,283.48,209.72,273.55,196.48,271.06Z" fill="#58595b"/><path d="M274.71,219.6c-21.85,0-37.56,19.69-37.56,55.93.33,35.58,14.73,55.28,35.74,55.28,23.67,0,37.41-20.19,37.41-56.77C310.29,239.79,297.22,219.6,274.71,219.6Zm-1,100c-13.24,0-21.85-15.89-21.85-43.86,0-29.29,9.26-44.85,21.85-44.85,15.22,0,21.84,17.38,21.84,43.86C295.56,302.18,288.45,319.56,273.72,319.56Z" fill="#58595b"/><path d="M339.69,209.5c-10.26,0-16.87,6.78-16.87,15.56,0,8.44,6.95,15.06,16.71,15.06,9.43,0,16.55-6.45,16.55-15.06C356.08,216.12,349.63,209.5,339.69,209.5ZM339.53,234c-5,0-8.27-4.46-8.27-8.93,0-5.13,3-9.44,8.11-9.44,5.29,0,8.61,4.14,8.61,9.27C348,229.85,344.66,234,339.53,234Z" fill="#58595b"/><path d="M407.62,385H306.35a11.81,11.81,0,1,0,0,23.63H407.62a11.81,11.81,0,1,0,0-23.63Z" fill="#58595b"/><path d="M201.77,385H104.38a11.81,11.81,0,1,0,0,23.63h97.39a11.81,11.81,0,0,0,0-23.63Z" fill="#58595b"/></svg>