<svg id="Layer_1" data-name="Layer 1" xmlns="http://www.w3.org/2000/svg" viewBox="0 0 512 512"><title>machine-wash-permanent-press-warm</title><path d="M504.23,104.13a11.78,11.78,0,0,0-15.14,7.06l-9.53,26.15c-.31,0-.58-.17-.9-.17-32.21,0-48.78,14-63.39,26.42-13.2,11.18-24.57,20.84-48.13,20.84s-34.93-9.66-48.12-20.84c-14.62-12.39-31.18-26.42-63.39-26.42s-48.75,14-63.37,26.42c-13.18,11.18-24.55,20.84-48.08,20.84s-34.92-9.66-48.1-20.84C81.47,151.2,64.91,137.17,32.7,137.17c-.11,0-.2.05-.31.06l-9.48-26a11.81,11.81,0,0,0-22.2,8.08L91,367.21c0,.1.12.18.16.29a11.5,11.5,0,0,0,.59,1.06A11.89,11.89,0,0,0,93.38,371a13.18,13.18,0,0,0,3.39,2.55c.38.19.74.4,1.15.56a11.7,11.7,0,0,0,4.14.83H407.61c.37,0,.7-.18,1.07-.22s.84.22,1.26.22a11.83,11.83,0,0,0,11.1-7.77l90.25-247.95A11.81,11.81,0,0,0,504.23,104.13ZM401.67,351.35H110.33L41.14,161.26c18,2,28.17,10.61,39.66,20.35C95.42,194,112,208.06,144.18,208.06s48.76-14.05,63.37-26.45c13.17-11.17,24.55-20.81,48.08-20.81s34.93,9.64,48.12,20.81c14.62,12.39,31.19,26.45,63.4,26.45s48.78-14.05,63.41-26.45c11.62-9.85,21.89-18.5,40.33-20.41Z" fill="#58595b"/><path d="M212.53,221.41H196.82l-48,68.68v9.44h50V329h13.74V299.53H227.6V288.28H212.53Zm-13.74,31v35.91H163.55v-.33l26.31-36.57c3-5,5.62-9.6,8.93-15.88h.5Q198.8,243.92,198.8,252.37Z" fill="#58595b"/><path d="M274.71,219.6c-21.84,0-37.56,19.69-37.56,55.94.33,35.58,14.73,55.28,35.74,55.28,23.67,0,37.41-20.19,37.41-56.77C310.29,239.78,297.22,219.6,274.71,219.6Zm-1,100c-13.24,0-21.85-15.89-21.85-43.86,0-29.29,9.26-44.85,21.85-44.85,15.22,0,21.84,17.38,21.84,43.86C295.56,302.18,288.44,319.56,273.72,319.56Z" fill="#58595b"/><path d="M339.7,209.5c-10.26,0-16.88,6.78-16.88,15.55,0,8.44,7,15.06,16.71,15.06,9.43,0,16.55-6.45,16.55-15.06C356.08,216.12,349.63,209.5,339.7,209.5ZM339.53,234c-5,0-8.27-4.46-8.27-8.94,0-5.13,3-9.43,8.11-9.43,5.29,0,8.61,4.14,8.61,9.27C348,229.85,344.66,234,339.53,234Z" fill="#58595b"/><path d="M407.62,385H104.38a11.81,11.81,0,1,0,0,23.63H407.62a11.81,11.81,0,1,0,0-23.63Z" fill="#58595b"/></svg>