<svg id="Layer_1" data-name="Layer 1" xmlns="http://www.w3.org/2000/svg" viewBox="0 0 512 512"><title>machine-wash-normal-hot-70</title><path d="M504.23,120.94A11.78,11.78,0,0,0,489.08,128l-9.52,26.15c-.31,0-.58-.17-.9-.17-32.21,0-48.77,14-63.39,26.42-13.19,11.18-24.58,20.83-48.13,20.83S332.21,191.58,319,180.4C304.4,168,287.84,154,255.63,154s-48.76,14-63.37,26.42c-13.18,11.18-24.55,20.83-48.08,20.83s-34.92-9.66-48.1-20.83C81.47,168,64.91,154,32.71,154a2.6,2.6,0,0,0-.31.05l-9.48-26a11.81,11.81,0,1,0-22.2,8.08L91,384c0,.1.12.18.16.29.15.37.4.7.59,1.06a11.89,11.89,0,0,0,1.67,2.48c.31.35.64.61,1,.93a12.7,12.7,0,0,0,2.4,1.61,12.15,12.15,0,0,0,1.15.56,11.7,11.7,0,0,0,4.14.83H407.61a10.39,10.39,0,0,0,1.07-.22,11,11,0,0,0,1.25.22A11.82,11.82,0,0,0,421,384l90.25-247.94A11.8,11.8,0,0,0,504.23,120.94ZM401.67,368.16H110.33L41.14,178.07c18,2,28.17,10.62,39.66,20.35,14.62,12.39,31.18,26.45,63.38,26.45s48.76-14.05,63.37-26.45c13.17-11.16,24.55-20.81,48.08-20.81s34.93,9.64,48.12,20.81c14.62,12.39,31.19,26.45,63.4,26.45s48.78-14.05,63.4-26.45c11.64-9.85,21.9-18.5,40.33-20.41Z" fill="#58595b"/><polygon points="155.77 250.3 208.4 250.3 208.4 250.65 161.73 345.81 176.79 345.81 223.62 247.82 223.62 238.23 155.77 238.23 155.77 250.3" fill="#58595b"/><path d="M274.71,236.4c-21.84,0-37.57,19.69-37.57,55.94.33,35.59,14.73,55.28,35.74,55.28,23.67,0,37.41-20.18,37.41-56.75C310.3,256.6,297.22,236.4,274.71,236.4Zm-1,100c-13.24,0-21.85-15.88-21.85-43.85,0-29.3,9.26-44.85,21.85-44.85,15.22,0,21.84,17.37,21.84,43.84C295.56,319,288.45,336.37,273.72,336.37Z" fill="#58595b"/><path d="M339.7,226.33c-10.26,0-16.88,6.78-16.88,15.55,0,8.43,7,15.05,16.71,15.05,9.43,0,16.55-6.45,16.55-15.05C356.08,232.94,349.63,226.33,339.7,226.33Zm-.17,24.48c-5,0-8.27-4.46-8.27-8.93,0-5.14,3-9.44,8.11-9.44,5.29,0,8.61,4.13,8.61,9.27C348,246.67,344.66,250.8,339.54,250.8Z" fill="#58595b"/></svg>