<svg id="Layer_1" data-name="Layer 1" xmlns="http://www.w3.org/2000/svg" viewBox="0 0 512 512"><title>tumble-dry-nornal-high-heat</title><path d="M0,0V512H512V0ZM483.94,225A230.07,230.07,0,0,0,287.06,28.05H483.94Zm-25.72,31c0,111.51-90.72,202.22-202.23,202.22S53.78,367.51,53.78,256,144.49,53.77,256,53.77,458.22,144.49,458.22,256Zm-233.28-228A230.05,230.05,0,0,0,28.06,225V28.05ZM28.06,287A230,230,0,0,0,224.94,483.94H28.06Zm259,196.93A230.05,230.05,0,0,0,483.94,287V483.94Z" fill="#58595b"/><path d="M170.08,237.3A18.7,18.7,0,1,0,188.79,256,18.68,18.68,0,0,0,170.08,237.3Z" fill="#58595b"/><path d="M256,237.3A18.7,18.7,0,1,0,274.68,256,18.7,18.7,0,0,0,256,237.3Z" fill="#58595b"/><path d="M341.92,237.3A18.7,18.7,0,1,0,360.61,256,18.7,18.7,0,0,0,341.92,237.3Z" fill="#58595b"/></svg>