<svg id="Layer_1" data-name="Layer 1" xmlns="http://www.w3.org/2000/svg" viewBox="0 0 512 512"><title>drip-dry</title><path d="M512,512H0V0H512ZM28.06,483.94H483.94V28.05H28.06Z" fill="#58595b"/><path d="M111.57,446.54a14,14,0,0,1-14-14v-353a14,14,0,1,1,28.06,0v353A14,14,0,0,1,111.57,446.54Z" fill="#58595b"/><path d="M256,446.54a14,14,0,0,1-14-14v-353a14,14,0,1,1,28.06,0v353A14,14,0,0,1,256,446.54Z" fill="#58595b"/><path d="M400.42,446.54a14,14,0,0,1-14-14v-353a14,14,0,1,1,28.06,0v353A14,14,0,0,1,400.42,446.54Z" fill="#58595b"/></svg>