<svg id="Layer_1" data-name="Layer 1" xmlns="http://www.w3.org/2000/svg" viewBox="0 0 512 512"><title>do-not-tumble-dry</title><path d="M0,0V512H512V0ZM483.94,225A229.19,229.19,0,0,0,433,108.75l40.89-40.89a21,21,0,0,0-29.74-29.75L403.24,79A229,229,0,0,0,287.1,28.06H483.94ZM226.25,256,99,383.21a201.52,201.52,0,0,1,0-254.45ZM128.79,99a201.5,201.5,0,0,1,254.44,0L256,226.23ZM256,285.74,383.25,413a201.53,201.53,0,0,1-254.47,0ZM285.77,256,413,128.77a201.53,201.53,0,0,1,0,254.44ZM224.91,28.06A229,229,0,0,0,108.77,79L67.89,38.11A21,21,0,0,0,38.12,67.86L79,108.74A229.33,229.33,0,0,0,28.06,225V28.06ZM28.06,287A229.21,229.21,0,0,0,79,403.23L38.12,444.11a21,21,0,1,0,29.76,29.75L108.76,433a229,229,0,0,0,116.23,51H28.06ZM287,483.94a229.07,229.07,0,0,0,116.24-51l40.89,40.87a21,21,0,1,0,29.74-29.75L433,403.23A229.2,229.2,0,0,0,483.94,287V483.94Z" fill="#58595b"/></svg>