<svg id="Layer_1" data-name="Layer 1" xmlns="http://www.w3.org/2000/svg" viewBox="0 0 512 512"><title>tumble-dry-normal-medium-heat</title><path d="M0,0V512H512V0ZM484,225A230.09,230.09,0,0,0,287.05,28H484Zm-25.74,31c0,111.51-90.71,202.23-202.22,202.23S53.78,367.51,53.78,256,144.49,53.77,256,53.77,458.22,144.49,458.22,256ZM224.95,28A230.09,230.09,0,0,0,28,225V28ZM28,287a230.07,230.07,0,0,0,196.9,196.94H28Zm259,196.94A230.07,230.07,0,0,0,484,287V483.95Z" fill="#58595b"/><path d="M208.66,237.3A18.7,18.7,0,1,0,227.35,256,18.7,18.7,0,0,0,208.66,237.3Z" fill="#58595b"/><path d="M303.34,237.3A18.7,18.7,0,1,0,322,256,18.7,18.7,0,0,0,303.34,237.3Z" fill="#58595b"/></svg>