<svg id="Layer_1" data-name="Layer 1" xmlns="http://www.w3.org/2000/svg" viewBox="0 0 512 512"><title>iron-high</title><path d="M178.79,356.39a18.57,18.57,0,1,1-18.58-18.57A18.58,18.58,0,0,1,178.79,356.39Z" fill="#58595b"/><path d="M274.58,356.39A18.58,18.58,0,1,1,256,337.83,18.57,18.57,0,0,1,274.58,356.39Z" fill="#58595b"/><path d="M370.39,356.39a18.58,18.58,0,1,1-18.58-18.57A18.57,18.57,0,0,1,370.39,356.39Z" fill="#58595b"/><path d="M457.25,476.32H5.3L2.63,465.84c-.68-2.59-15.57-64,33.69-127.35C104.34,251,254.94,205.71,484.13,204V90.45a26.9,26.9,0,0,0-26.88-26.89H28.59a13.94,13.94,0,0,1,0-27.87H457.25A54.82,54.82,0,0,1,512,90.45V421.57A54.8,54.8,0,0,1,457.25,476.32ZM28.17,448.46H457.25a26.91,26.91,0,0,0,26.88-26.89V231.84C210.44,234,101.48,300,58.32,355.59,28.51,394,26.82,431,28.17,448.46Z" fill="#58595b"/></svg>