<svg id="Layer_1" data-name="Layer 1" xmlns="http://www.w3.org/2000/svg" viewBox="0 0 512 512"><title>do-not-iron</title><path d="M457.25,5.89H28.59a13.94,13.94,0,0,0,0,27.87H457.25a26.9,26.9,0,0,1,26.88,26.89V174.18c-32.52.24-63.29,1.46-92.64,3.47l81-81A20.9,20.9,0,0,0,442.9,67.12L326.3,183.73c-43.42,5.38-82.49,13.15-117.48,23.06L69.13,67.12A20.9,20.9,0,1,0,39.57,96.68l124.8,124.78c-56.77,21.7-99.68,50.74-128,87.23C-12.94,372.09,2,433.44,2.63,436l2.65,10.48H63.48L39.57,470.44A20.9,20.9,0,0,0,69.13,500l53.47-53.47H389.44L442.9,500a20.89,20.89,0,0,0,29.55-29.55l-23.91-23.92h8.7A54.8,54.8,0,0,0,512,391.77V60.65A54.82,54.82,0,0,0,457.25,5.89Zm-164.12,211L256,254l-24.27-24.27C250.43,224.94,270.81,220.62,293.13,216.9Zm-265,201.77c-1.34-17.5.35-54.48,30.15-92.87,21.75-28,60.21-58.61,128-82.41l40.15,40.18L91.35,418.66Zm122.29,0L256,313.11,361.56,418.66Zm333.67-26.89a26.91,26.91,0,0,1-26.88,26.89H420.67l-135.1-135.1L361,208.1c36.82-3.54,77.63-5.7,123.09-6.06Z" fill="#58595b"/></svg>