<svg id="Layer_1" data-name="Layer 1" xmlns="http://www.w3.org/2000/svg" viewBox="0 0 512 512"><title>iron-normal</title><path d="M227.55,356.39A18.57,18.57,0,1,1,209,337.82,18.57,18.57,0,0,1,227.55,356.39Z" fill="#58595b"/><path d="M321.61,356.39A18.57,18.57,0,1,1,303,337.82,18.57,18.57,0,0,1,321.61,356.39Z" fill="#58595b"/><path d="M457.23,476.31H5.29L2.62,465.83c-.66-2.59-15.57-64,33.69-127.34C104.33,251,254.94,205.71,484.13,204V90.45a26.91,26.91,0,0,0-26.89-26.89H28.6a13.94,13.94,0,0,1,0-27.87H457.23A54.83,54.83,0,0,1,512,90.45V421.56A54.82,54.82,0,0,1,457.23,476.31ZM28.17,448.46H457.23a26.92,26.92,0,0,0,26.89-26.89V231.84C210.45,234,101.49,300,58.32,355.59,28.51,394,26.83,431,28.17,448.46Z" fill="#58595b"/></svg>